<?xml version="1.0" encoding="UTF-8"?><svg id="_レイヤー_2" xmlns="http://www.w3.org/2000/svg" viewBox="0 0 192.87 192.87"><defs><style>.cls-1{fill:#abc021;}.cls-1,.cls-2,.cls-3,.cls-4,.cls-5,.cls-6,.cls-7{stroke-width:0px;}.cls-2{fill:none;}.cls-3{fill:#287bde;}.cls-4{fill:#2b9999;}.cls-5{fill:#c9656c;}.cls-6{fill:#2b2b2b;}.cls-7{fill:#a9b7c5;}</style></defs><g id="_レイヤー_"><rect class="cls-2" width="192.87" height="192.87"/><path class="cls-6" d="M58.07,139.61c-27.72,0-50.27-19.37-50.27-43.17s22.55-43.17,50.27-43.17c15.09,0,29.25,5.74,38.83,15.76,2.78,2.9,6.52,4.39,10.28,4.39,3.13,0,6.26-1.03,8.88-3.11,7.61-6.09,17.54-9.44,27.96-9.44,22.64,0,41.05,15.8,41.05,35.22s-18.42,35.22-41.05,35.22c-10.25,0-20.08-3.27-27.67-9.22-2.59-2.03-5.69-3.03-8.77-3.03-3.81,0-7.6,1.52-10.38,4.5-9.57,10.21-23.83,16.06-39.13,16.06Z"/><path class="cls-7" d="M125.1,92.14h-6.08c-2.49,0-4.5-2.01-4.5-4.5s2.01-4.5,4.5-4.5h6.08c2.49,0,4.5,2.01,4.5,4.5s-2.01,4.5-4.5,4.5Z"/><path class="cls-4" d="M85.27,76.98H31c-2.49,0-4.5-2.01-4.5-4.5s2.01-4.5,4.5-4.5h54.27c2.49,0,4.5,2.01,4.5,4.5s-2.01,4.5-4.5,4.5Z"/><path class="cls-7" d="M157.58,76.98h-28.57c-2.49,0-4.5-2.01-4.5-4.5s2.01-4.5,4.5-4.5h28.57c2.49,0,4.5,2.01,4.5,4.5s-2.01,4.5-4.5,4.5Z"/><path class="cls-7" d="M41.06,92.14h-20.29c-2.49,0-4.5-2.01-4.5-4.5s2.01-4.5,4.5-4.5h20.29c2.49,0,4.5,2.01,4.5,4.5s-2.01,4.5-4.5,4.5Z"/><path class="cls-3" d="M171.46,92.14h-32.53c-2.49,0-4.5-2.01-4.5-4.5s2.01-4.5,4.5-4.5h32.53c2.49,0,4.5,2.01,4.5,4.5s-2.01,4.5-4.5,4.5Z"/><path class="cls-5" d="M104.21,92.14h-48.32c-2.49,0-4.5-2.01-4.5-4.5s2.01-4.5,4.5-4.5h48.32c2.49,0,4.5,2.01,4.5,4.5s-2.01,4.5-4.5,4.5Z"/><path class="cls-5" d="M53.59,107.3H17.14c-2.49,0-4.5-2.01-4.5-4.5s2.01-4.5,4.5-4.5h36.45c2.49,0,4.5,2.01,4.5,4.5s-2.01,4.5-4.5,4.5Z"/><path class="cls-1" d="M114.2,107.3h-16.45c-2.49,0-4.5-2.01-4.5-4.5s2.01-4.5,4.5-4.5h16.45c2.49,0,4.5,2.01,4.5,4.5s-2.01,4.5-4.5,4.5Z"/><path class="cls-4" d="M174.93,107.3h-42.54c-2.49,0-4.5-2.01-4.5-4.5s2.01-4.5,4.5-4.5h42.54c2.49,0,4.5,2.01,4.5,4.5s-2.01,4.5-4.5,4.5Z"/><path class="cls-1" d="M160.7,122.46h-33c-2.49,0-4.5-2.01-4.5-4.5s2.01-4.5,4.5-4.5h33c2.49,0,4.5,2.01,4.5,4.5s-2.01,4.5-4.5,4.5Z"/><path class="cls-3" d="M87.36,122.46H26.54c-2.49,0-4.5-2.01-4.5-4.5s2.01-4.5,4.5-4.5h60.82c2.49,0,4.5,2.01,4.5,4.5s-2.01,4.5-4.5,4.5Z"/><path class="cls-4" d="M79.55,107.3h-7.77c-2.49,0-4.5-2.01-4.5-4.5s2.01-4.5,4.5-4.5h7.77c2.49,0,4.5,2.01,4.5,4.5s-2.01,4.5-4.5,4.5Z"/><path class="cls-5" d="M63.03,136.27h-11.87c-2.49,0-4.5-2.01-4.5-4.5s2.01-4.5,4.5-4.5h11.87c2.49,0,4.5,2.01,4.5,4.5s-2.01,4.5-4.5,4.5Z"/><path class="cls-3" d="M59.02,64.79h-5.87c-2.49,0-4.5-2.01-4.5-4.5s2.01-4.5,4.5-4.5h5.87c2.49,0,4.5,2.01,4.5,4.5s-2.01,4.5-4.5,4.5Z"/></g></svg>